<svg width="1485" height="1394" viewBox="0 0 1485 1394" fill="none" xmlns="http://www.w3.org/2000/svg">
<path d="M199.991 452.229C220.363 529.449 240.666 638.16 244.753 710.576C244.789 711.217 245.409 711.643 246.027 711.467L533.205 629.374C479.802 620.002 480.537 635.479 369.486 548.448C306.095 487.068 282.981 451.404 265.594 388.067C265.017 385.963 264.729 383.77 264.729 381.587V175.771C264.729 175.771 222.889 160.479 205.768 153.95C188.646 147.421 102.325 135.827 74.262 76.9751L26.6451 0L7.5984 57.7313C-3.00486 102.982 -1.90176 129.585 7.13715 180.247C7.43996 181.945 7.88372 183.632 8.50275 185.241C11.7768 193.751 17.0759 205.007 22.6605 216.186C37.2536 245.398 58.1798 270.785 81.1005 294.044C118.966 332.467 176.704 396.688 199.991 452.229Z" fill="#222222"/>
<path d="M323.691 352.573C326.285 381.414 331.533 409.724 352.261 425.253C398.677 429.024 399.969 423.817 438.672 409.613C441.18 408.693 443.629 407.622 445.956 406.311C475.475 389.677 511.345 360.059 533.205 333.33C465.136 323.192 447.485 314.086 447.485 314.086C394.937 289.138 376.616 263.284 352.261 208.245L323.691 237.111V352.573Z" fill="#222222"/>
<path d="M243.723 622.944C240.961 622.944 238.721 625.187 238.743 627.948C240.054 791.355 305.534 947.787 421.179 1063.43C538.003 1180.26 696.451 1245.89 861.666 1245.89C1026.88 1245.89 1185.33 1180.26 1302.15 1063.43C1417.8 947.787 1483.28 791.356 1484.59 627.948C1484.61 625.187 1482.37 622.944 1479.61 622.944L1101.03 622.944C1099.73 622.944 1098.48 623.453 1097.54 624.362L1085.54 636.051C1083.58 637.962 1080.44 637.939 1078.51 635.999L1066.97 624.414C1066.03 623.473 1064.75 622.944 1063.42 622.944L861.666 622.944L243.723 622.944Z" fill="#222222"/>
<path d="M1201.47 773.705C1086.17 806.853 980.75 867.115 908.272 962.052C835.794 1056.99 798.16 1126.91 803.857 1245.89H876.841C871.888 1142.45 898.575 1084.68 961.587 1002.14C1024.6 919.605 1116.09 866.589 1216.49 838.394C1262.27 825.54 1289.03 820.523 1340.31 813.909C1395.85 806.746 1401.34 809.535 1457.15 804.919L1466.22 770.998L1474.16 737.078C1474.16 737.078 1400.52 741.767 1340.31 748.898C1282.46 755.749 1252.34 759.079 1201.47 773.705Z" fill="#FAF3E1"/>
<path d="M804.164 967.603C804.164 965.393 802.372 963.599 800.164 963.64C773.266 964.14 746.687 969.679 721.811 979.984C695.701 990.798 671.978 1006.65 651.995 1026.63C632.012 1046.62 616.161 1070.34 605.346 1096.45C594.531 1122.56 588.965 1150.54 588.965 1178.8C588.965 1207.06 594.531 1235.05 605.346 1261.15C616.161 1287.26 632.012 1310.99 651.995 1330.97C671.978 1350.95 695.701 1366.8 721.811 1377.62C746.687 1387.92 773.266 1393.46 800.164 1393.96C802.372 1394 804.164 1392.21 804.164 1390L804.164 1178.8V967.603Z" fill="#222222"/>
<circle cx="913.623" cy="772.709" r="33.9787" fill="#FAF3E1"/>
</svg>
