<svg width="51" height="50" viewBox="0 0 51 50" fill="none" xmlns="http://www.w3.org/2000/svg">
<path d="M16.1514 3.67432C18.4984 3.67432 20.7495 4.60656 22.4092 6.26611C24.0688 7.92572 25.0009 10.1769 25.001 12.5239V37.9419C24.9968 39.3147 24.7162 40.6725 24.1748 41.9341C23.6332 43.196 22.8422 44.3357 21.8496 45.2847C20.8569 46.2337 19.6825 46.9732 18.3975 47.4575C17.1125 47.9417 15.743 48.1617 14.3711 48.104C12.9991 48.0462 11.6529 47.7112 10.4131 47.1206C9.17327 46.53 8.06466 45.6956 7.15527 44.6665C6.24596 43.6375 5.5537 42.4353 5.12012 41.1323C4.68655 39.8294 4.52043 38.4521 4.63184 37.0835L4.65039 36.8628L4.5 36.7017C3.45406 35.5801 2.57507 33.8871 1.95801 31.9702C1.34276 30.0588 1 27.9628 1 26.0659C1.00006 20.8746 3.55603 15.9009 7.0918 13.9771L7.38574 13.8169L7.34961 13.4839C7.21481 12.2478 7.34174 10.9967 7.72266 9.81299C8.10358 8.62937 8.73015 7.53924 9.56055 6.61377C10.3909 5.68835 11.4074 4.94836 12.543 4.44189C13.5365 3.99882 14.6018 3.74266 15.6855 3.68604L16.1514 3.67432ZM34.8516 3.67432C36.0947 3.67432 37.3238 3.93616 38.459 4.44287C39.5942 4.9496 40.6094 5.69027 41.4395 6.61572C42.2694 7.54114 42.8957 8.63061 43.2764 9.81396C43.6571 10.9974 43.7842 12.2481 43.6494 13.4839L43.6133 13.8169L43.9072 13.9771C47.4466 15.9008 49.999 20.8743 49.999 26.0659C49.999 27.9629 49.6572 30.0574 49.043 31.9683C48.4269 33.8848 47.5491 35.578 46.5029 36.7017L46.3525 36.8628L46.3701 37.0835C46.4815 38.4522 46.3164 39.8294 45.8828 41.1323C45.4492 42.4354 44.7561 43.6374 43.8467 44.6665C42.9373 45.6954 41.8295 46.53 40.5898 47.1206C39.3501 47.7112 38.0039 48.0462 36.6318 48.104C35.2599 48.1617 33.8904 47.9417 32.6055 47.4575C31.3204 46.9732 30.146 46.2337 29.1533 45.2847C28.1607 44.3357 27.3697 43.196 26.8281 41.9341C26.3543 40.8298 26.0795 39.6518 26.0156 38.4546L26.001 37.9409V12.5239C26.0011 10.1769 26.9341 7.92572 28.5938 6.26611C30.2534 4.60658 32.5045 3.67432 34.8516 3.67432Z" fill="#FAF3E1" stroke="#474747"/>
<path d="M25.5014 22.3459V37.9423C25.4973 39.3829 25.2023 40.8079 24.6341 42.1317C24.066 43.4556 23.2364 44.6511 22.195 45.6466C21.1537 46.6421 19.9221 47.4171 18.574 47.9252C17.226 48.4332 15.7892 48.6639 14.3499 48.6033C12.9105 48.5427 11.4982 48.1921 10.1977 47.5725C8.89707 46.9529 7.73497 46.0771 6.78102 44.9976C5.82706 43.9181 5.10089 42.6571 4.64603 41.2901C4.19118 39.9232 4.01699 38.4785 4.13393 37.0427C1.90643 34.6541 0.5 29.9712 0.5 26.0662C0.5 20.7469 3.1125 15.573 6.8525 13.538C6.64987 11.68 7.00871 9.80399 7.88271 8.15196C8.7567 6.49992 10.1057 5.14773 11.7557 4.26988C13.4057 3.39203 15.2809 3.02881 17.1394 3.22709C18.9978 3.42538 20.7542 4.17608 22.1818 5.3823" stroke="#474747" stroke-linecap="round" stroke-linejoin="round"/>
<path d="M11.7945 19.8944C10.4195 19.5801 7.31205 17.5372 6.84455 13.5615M6.99776 31.4326C5.59919 32.5365 4.48348 35.0351 4.12598 37.0387M25.5013 37.9422C25.5055 39.3829 25.8005 40.8078 26.3687 42.1316C26.9368 43.4555 27.7664 44.651 28.8077 45.6465C29.8491 46.642 31.0807 47.417 32.4287 47.9251C33.7768 48.4331 35.2135 48.6638 36.6529 48.6032C38.0922 48.5426 39.5045 48.192 40.8051 47.5724C42.1057 46.9529 43.2678 46.0771 44.2217 44.9975C45.1757 43.918 45.9019 42.657 46.3567 41.2901C46.8116 39.9232 46.9858 38.4785 46.8688 37.0426C49.0963 34.6501 50.4988 29.9712 50.4988 26.0662C50.4988 24.3612 50.2317 22.6719 49.7445 21.0965" stroke="#474747" stroke-linecap="round" stroke-linejoin="round"/>
<path d="M44.0049 31.4326C45.4035 32.5365 46.5192 35.0351 46.8767 37.0387" stroke="#474747" stroke-linecap="round" stroke-linejoin="round"/>
<path d="M36.416 1.63672C36.5921 0.843012 37.6546 0.791725 37.9463 1.48145L37.9941 1.62891L38.0908 2.06836L38.0918 2.07129C38.6627 4.5787 39.9627 6.86169 41.8281 8.63184C43.6935 10.4019 46.0414 11.5807 48.5752 12.0195C49.4003 12.1629 49.4094 13.3615 48.5732 13.5088C46.04 13.9479 43.6931 15.1267 41.8281 16.8965C39.9634 18.666 38.664 20.9477 38.0928 23.4541L37.9902 23.8945V23.8965C37.7987 24.7352 36.6042 24.7301 36.4199 23.8887L36.3379 23.5117C35.7846 20.9943 34.4946 18.6976 32.6328 16.915C30.771 15.1326 28.4209 13.9442 25.8818 13.501H25.8828C25.1057 13.363 25.0657 12.3133 25.7383 12.0654L25.8818 12.0273C28.421 11.5841 30.771 10.3948 32.6328 8.6123C34.4945 6.82982 35.7846 4.53396 36.3379 2.0166L36.3389 2.01074L36.415 1.63574L36.416 1.63672Z" fill="#FAF3E1" stroke="#474747"/>
<path d="M25.7959 13.9937C24.4209 13.7501 24.4209 11.774 25.7959 11.5344C28.2373 11.1082 30.4968 9.96545 32.287 8.25153C34.0772 6.53762 35.3171 4.32997 35.8491 1.90939L35.9277 1.52832C36.2302 0.165108 38.167 0.153323 38.4813 1.51654L38.5795 1.96047C39.1285 4.37168 40.3786 6.56657 42.1724 8.2688C43.9662 9.97104 46.2235 11.1045 48.6602 11.5265C50.043 11.7662 50.043 13.758 48.6602 14.0015C46.2235 14.4236 43.9662 15.557 42.1724 17.2593C40.3786 18.9615 39.1285 21.1564 38.5795 23.5676L38.4773 24.0076C38.167 25.3669 36.2302 25.359 35.9316 23.9958L35.8491 23.6187C35.3171 21.1981 34.0772 18.9905 32.287 17.2765C30.4968 15.5626 28.2373 14.4199 25.7959 13.9937Z" stroke="#474747" stroke-linecap="round" stroke-linejoin="round"/>
</svg>
